<svg id="visual" viewBox="0 0 960 200" width="960" height="200" xmlns="http://www.w3.org/2000/svg" xmlns:xlink="http://www.w3.org/1999/xlink" version="1.1"><rect x="0" y="0" width="960" height="200" fill="#3D0C11"></rect><path d="M0 87L17.8 90.7C35.7 94.3 71.3 101.7 106.8 103.5C142.3 105.3 177.7 101.7 213.2 97.7C248.7 93.7 284.3 89.3 320 95.3C355.7 101.3 391.3 117.7 426.8 115.5C462.3 113.3 497.7 92.7 533.2 82.5C568.7 72.3 604.3 72.7 640 71.2C675.7 69.7 711.3 66.3 746.8 72C782.3 77.7 817.7 92.3 853.2 90.5C888.7 88.7 924.3 70.3 942.2 61.2L960 52L960 201L942.2 201C924.3 201 888.7 201 853.2 201C817.7 201 782.3 201 746.8 201C711.3 201 675.7 201 640 201C604.3 201 568.7 201 533.2 201C497.7 201 462.3 201 426.8 201C391.3 201 355.7 201 320 201C284.3 201 248.7 201 213.2 201C177.7 201 142.3 201 106.8 201C71.3 201 35.7 201 17.8 201L0 201Z" fill="#f78ca2"></path><path d="M0 101L17.8 106.3C35.7 111.7 71.3 122.3 106.8 131.7C142.3 141 177.7 149 213.2 146.8C248.7 144.7 284.3 132.3 320 120.5C355.7 108.7 391.3 97.3 426.8 92.2C462.3 87 497.7 88 533.2 95.3C568.7 102.7 604.3 116.3 640 118.3C675.7 120.3 711.3 110.7 746.8 106.3C782.3 102 817.7 103 853.2 103.3C888.7 103.7 924.3 103.3 942.2 103.2L960 103L960 201L942.2 201C924.3 201 888.7 201 853.2 201C817.7 201 782.3 201 746.8 201C711.3 201 675.7 201 640 201C604.3 201 568.7 201 533.2 201C497.7 201 462.3 201 426.8 201C391.3 201 355.7 201 320 201C284.3 201 248.7 201 213.2 201C177.7 201 142.3 201 106.8 201C71.3 201 35.7 201 17.8 201L0 201Z" fill="#ec576d"></path><path d="M0 134L17.8 137.8C35.7 141.7 71.3 149.3 106.8 153.8C142.3 158.3 177.7 159.7 213.2 154.2C248.7 148.7 284.3 136.3 320 139.3C355.7 142.3 391.3 160.7 426.8 168.8C462.3 177 497.7 175 533.2 174.3C568.7 173.7 604.3 174.3 640 167.5C675.7 160.7 711.3 146.3 746.8 140.8C782.3 135.3 817.7 138.7 853.2 146.8C888.7 155 924.3 168 942.2 174.5L960 181L960 201L942.2 201C924.3 201 888.7 201 853.2 201C817.7 201 782.3 201 746.8 201C711.3 201 675.7 201 640 201C604.3 201 568.7 201 533.2 201C497.7 201 462.3 201 426.8 201C391.3 201 355.7 201 320 201C284.3 201 248.7 201 213.2 201C177.7 201 142.3 201 106.8 201C71.3 201 35.7 201 17.8 201L0 201Z" fill="#d80032"></path></svg>