<svg id="visual" viewBox="0 0 960 200" width="960" height="200" xmlns="http://www.w3.org/2000/svg" xmlns:xlink="http://www.w3.org/1999/xlink" version="1.1"><rect x="0" y="0" width="960" height="200" fill="#041C32"></rect><path d="M0 68L22.8 71.3C45.7 74.7 91.3 81.3 137 79.5C182.7 77.7 228.3 67.3 274 61.5C319.7 55.7 365.3 54.3 411.2 61C457 67.7 503 82.3 548.8 86.5C594.7 90.7 640.3 84.3 686 85.3C731.7 86.3 777.3 94.7 823 96.3C868.7 98 914.3 93 937.2 90.5L960 88L960 201L937.2 201C914.3 201 868.7 201 823 201C777.3 201 731.7 201 686 201C640.3 201 594.7 201 548.8 201C503 201 457 201 411.2 201C365.3 201 319.7 201 274 201C228.3 201 182.7 201 137 201C91.3 201 45.7 201 22.8 201L0 201Z" fill="#ecb365"></path><path d="M0 96L22.8 102.7C45.7 109.3 91.3 122.7 137 129C182.7 135.3 228.3 134.7 274 133.2C319.7 131.7 365.3 129.3 411.2 126.7C457 124 503 121 548.8 119C594.7 117 640.3 116 686 110.8C731.7 105.7 777.3 96.3 823 97.7C868.7 99 914.3 111 937.2 117L960 123L960 201L937.2 201C914.3 201 868.7 201 823 201C777.3 201 731.7 201 686 201C640.3 201 594.7 201 548.8 201C503 201 457 201 411.2 201C365.3 201 319.7 201 274 201C228.3 201 182.7 201 137 201C91.3 201 45.7 201 22.8 201L0 201Z" fill="#689255"></path><path d="M0 141L22.8 142C45.7 143 91.3 145 137 144.8C182.7 144.7 228.3 142.3 274 139.8C319.7 137.3 365.3 134.7 411.2 131.3C457 128 503 124 548.8 127.8C594.7 131.7 640.3 143.3 686 149.2C731.7 155 777.3 155 823 152.8C868.7 150.7 914.3 146.3 937.2 144.2L960 142L960 201L937.2 201C914.3 201 868.7 201 823 201C777.3 201 731.7 201 686 201C640.3 201 594.7 201 548.8 201C503 201 457 201 411.2 201C365.3 201 319.7 201 274 201C228.3 201 182.7 201 137 201C91.3 201 45.7 201 22.8 201L0 201Z" fill="#005f5b"></path><path d="M0 151L22.8 152.3C45.7 153.7 91.3 156.3 137 160.7C182.7 165 228.3 171 274 174.3C319.7 177.7 365.3 178.3 411.2 174.8C457 171.3 503 163.7 548.8 158.5C594.7 153.3 640.3 150.7 686 149C731.7 147.3 777.3 146.7 823 146.5C868.7 146.3 914.3 146.7 937.2 146.8L960 147L960 201L937.2 201C914.3 201 868.7 201 823 201C777.3 201 731.7 201 686 201C640.3 201 594.7 201 548.8 201C503 201 457 201 411.2 201C365.3 201 319.7 201 274 201C228.3 201 182.7 201 137 201C91.3 201 45.7 201 22.8 201L0 201Z" fill="#04293a"></path></svg>